<?xml version="1.0" encoding="utf-8"?>
<!-- Generator: Adobe Illustrator 21.0.0, SVG Export Plug-In . SVG Version: 6.00 Build 0)  -->
<svg version="1.1" id="Capa_1" xmlns="http://www.w3.org/2000/svg" xmlns:xlink="http://www.w3.org/1999/xlink" x="0px" y="0px"
	 viewBox="0 0 200 200" style="enable-background:new 0 0 200 200;" xml:space="preserve">
<style type="text/css">
	.st0{fill:#FFFFFF;}
</style>
<path class="st0" d="M195.3,91.2L108.8,4.8c-5-5-13-5-18,0L72.9,22.7l22.8,22.8c5.3-1.8,11.4-0.6,15.6,3.6
	c4.2,4.2,5.4,10.4,3.6,15.7l21.9,21.9c5.3-1.8,11.4-0.6,15.7,3.6c5.9,5.9,5.9,15.5,0,21.5c-5.9,5.9-15.5,5.9-21.5,0
	c-4.5-4.5-5.6-11-3.3-16.5l-20.5-20.5l0,53.9c1.5,0.7,2.8,1.7,4,2.9c5.9,5.9,5.9,15.5,0,21.5c-5.9,5.9-15.5,5.9-21.5,0
	c-5.9-5.9-5.9-15.5,0-21.5c1.4-1.4,3.1-2.5,5-3.3V73.9c-1.9-0.8-3.5-1.9-5-3.3c-4.5-4.5-5.6-11.1-3.3-16.6L64,31.5L4.8,90.8
	c-5,5-5,13.1,0,18l86.4,86.4c5,5,13,5,18,0l86-86C200.2,104.2,200.2,96.2,195.3,91.2"/>
</svg>
