<?xml version="1.0" encoding="utf-8"?>
<!-- Generator: Adobe Illustrator 21.0.0, SVG Export Plug-In . SVG Version: 6.00 Build 0)  -->
<svg version="1.1" id="Capa_1" xmlns="http://www.w3.org/2000/svg" xmlns:xlink="http://www.w3.org/1999/xlink" x="0px" y="0px"
	 viewBox="0 0 283.5 283.5" style="enable-background:new 0 0 283.5 283.5;" xml:space="preserve">
<style type="text/css">
	.st0{fill:#FFFFFF;}
</style>
<path class="st0" d="M274.7,118.9c-6.2-4.2-20.6-5.7-31.6-3.6c-1.4-10.4-7.2-19.4-17.7-27.5l-6.1-4l-4,6.1
	c-5.2,7.8-7.8,18.6-6.9,28.9c0.4,3.6,1.6,10.2,5.3,15.9c-3.7,2-11.2,4.8-20.9,4.6H5.1l-0.4,2.2C3,151.8,3,184.3,24.1,209.2
	c16,19,40.1,28.6,71.4,28.6c68,0,118.3-31.3,141.8-88.2c9.3,0.2,29.2,0.1,39.5-19.5c0.3-0.4,0.9-1.6,2.7-5.3l1-2L274.7,118.9z
	 M126.7,71.8h28.5V45.8h-28.5V71.8z M126.7,102.9h28.5V77h-28.5V102.9z M92.9,102.9h28.5V77H92.9V102.9z M59.2,102.9h28.5V77H59.2
	V102.9z M25.5,134.1H54v-25.9H25.5V134.1z M59.2,134.1h28.5v-25.9H59.2V134.1z M92.9,134.1h28.5v-25.9H92.9V134.1z M126.7,134.1
	h28.5v-25.9h-28.5V134.1z M160.4,134.1h28.5v-25.9h-28.5V134.1z"/>
</svg>
