<?xml version="1.0" encoding="utf-8"?>
<!-- Generator: Adobe Illustrator 23.0.1, SVG Export Plug-In . SVG Version: 6.00 Build 0)  -->
<svg version="1.1" id="Layer_1" xmlns="http://www.w3.org/2000/svg" xmlns:xlink="http://www.w3.org/1999/xlink" x="0px" y="0px"
	 viewBox="0 0 200 200" style="enable-background:new 0 0 200 200;" xml:space="preserve">
<style type="text/css">
	.st0{fill-rule:evenodd;clip-rule:evenodd;fill:#FFFFFF;}
</style>
<path class="st0" d="M83.07,173.36c-22.98-0.01-45.96,0.1-68.94-0.05c-11.65-0.08-13.77-2.86-11.15-14.39
	c8.89-39.11,18.07-78.14,26.77-117.3c2.33-10.5,7.36-15.14,18.48-15.04c45.96,0.43,91.92,0.14,137.88,0.19
	c11.53,0.01,13.46,2.51,10.87,14.33c-8.38,38.4-16.87,76.77-25.46,115.13c-3.22,14.35-6.93,17.09-21.85,17.12
	C127.48,173.4,105.27,173.36,83.07,173.36z M104.34,99.74c-2.48-2.8-4.55-5.17-6.25-7.07c-9.92-11.14-19.01-21.51-28.83-32.12
	c-4.5-4.85-5.93-9.57-0.53-14.36c5.34-4.74,10.58-4.32,15.48,1.13c13.63,15.17,27.25,30.36,41.11,45.33
	c5.18,5.59,3.97,9.39-1.73,13.53c-21.86,15.93-43.64,31.95-65.35,48.08c-4.88,3.62-9.54,4.53-13.49-0.82
	c-4.35-5.9-0.33-9.41,4.19-12.71c16.14-11.81,32.26-23.67,48.31-35.62C99.48,103.45,102.46,101.15,104.34,99.74z M90.84,153.13
	c-4.59,0-7.14-4.08-7.14-8.16c0-4.08,2.55-8.16,7.14-8.16h38.78c4.59,0,7.14,4.08,7.14,8.16c0,4.08-2.55,8.16-7.14,8.16H90.84z"/>
</svg>
