<?xml version="1.0" encoding="utf-8"?>
<!-- Generator: Adobe Illustrator 21.0.0, SVG Export Plug-In . SVG Version: 6.00 Build 0)  -->
<svg version="1.1" id="Capa_1" xmlns="http://www.w3.org/2000/svg" xmlns:xlink="http://www.w3.org/1999/xlink" x="0px" y="0px"
	 viewBox="0 0 200 200" style="enable-background:new 0 0 200 200;" xml:space="preserve">
<style type="text/css">
	.st0{fill:#FFFFFF;}
</style>
<g>
	<g>
		<path class="st0" d="M99.5,4.4c42.4,0,78.2,17.5,79.4,38.4c-1.2,20.9-37,38.4-79.4,38.4c-42.4,0-78.2-17.5-79.4-38.4
			C21.3,21.9,57.1,4.4,99.5,4.4z"/>
		<path class="st0" d="M179,157.1c0,21.4-36.4,39.5-79.5,39.5S20,178.5,20,157.1v-18.9c13.6,16.3,43.7,27.5,79.5,27.5
			s65.9-11.1,79.5-27.5L179,157.1L179,157.1z"/>
		<path class="st0" d="M179,118.4c0,21.4-36.4,39.5-79.5,39.5S20,139.8,20,118.4V98.7c13.6,16.3,43.7,27.5,79.5,27.5
			S165.4,115,179,98.7L179,118.4L179,118.4z"/>
		<path class="st0" d="M179,78.9c0,21.4-36.4,39.5-79.5,39.5S20,100.3,20,78.9V61.6C33.6,77.9,63.7,89,99.5,89s65.9-11.1,79.5-27.4
			V78.9z"/>
	</g>
</g>
</svg>
